<svg width="128" height="128" viewBox="0 0 128 128" fill="none" xmlns="http://www.w3.org/2000/svg">
<path d="M35.031 119C35.031 116.605 34.855 114.298 35.1191 112.078C35.2093 111.457 36.1886 110.748 36.9897 110.392C50.0665 104.891 63.1411 99.5669 76.2178 94.1532C82.4459 91.5802 88.762 89.0073 94.9879 86.3444C99.5237 84.3927 101.927 80.2216 101.658 75.3413C101.304 70.8167 98.3683 67.1791 94.0086 65.9365C93.6543 67.8882 93.5641 69.9298 93.0315 71.7937C91.3413 77.7386 87.4262 81.642 81.7329 84.0393C64.0324 91.3146 46.3296 98.68 28.7171 105.955C26.0476 107.02 23.4684 108.173 20.4423 109.327C20.3543 108.353 20.2663 107.641 20.2663 106.932C20.088 95.1301 20.088 83.4136 20.088 71.6158C20.088 70.0176 20.5326 69.2185 22.1347 68.5973C39.3005 61.5875 56.3804 54.6656 73.4603 47.5659C81.4666 44.2839 82.9785 34.08 76.3961 28.7563C75.507 28.045 74.4374 27.6015 73.194 26.8024C73.0158 32.3939 71.4136 37.0085 67.5887 40.5562C65.8986 42.0666 63.9421 43.5748 61.8074 44.4617C48.307 50.0003 34.8157 55.5611 21.3336 61.1441C21.0674 61.2319 20.7989 61.3197 20.2663 61.4997C20.1783 60.7006 20.088 60.0793 20.088 59.3703C20.088 47.5681 20.1761 35.676 20 23.8738C20 22.1878 20.5326 21.4809 22.0467 20.8575C30.4975 17.4876 38.8559 13.9356 47.3045 10.4757C55.938 7.01585 64.9215 9.76661 70.1724 17.3976C70.617 18.1067 71.5061 18.818 72.2191 18.9058C86.8056 21.9222 92.6772 37.0964 83.8698 48.8107C83.6035 49.0741 82.8927 49.9632 82.9807 49.7854C86.273 52.2705 88.9403 53.5131 91.075 57.2386C91.4315 57.8621 92.4109 57.9499 93.1217 58.0377C101.749 59.5481 107.889 65.7587 108.866 74.1888C109.845 81.9976 105.397 89.9842 97.7477 93.1784C77.3776 101.696 56.9174 110.039 36.5451 118.557C36.1908 118.644 35.7463 118.732 35.0354 119H35.031ZM42.4145 92.2015C46.6839 90.4277 50.4208 88.8295 54.2457 87.2335C62.6965 83.7714 71.0593 80.3994 79.4221 76.8495C85.2915 74.3666 87.6925 68.066 85.2035 62.2988C82.8002 56.7073 76.5744 54.3122 70.7908 56.6195C57.0032 62.2988 43.3036 67.976 29.6062 73.5675C28.1823 74.0988 27.5595 74.72 27.5595 76.4061C27.7378 80.665 27.6476 84.924 27.6476 89.2729V98.3243C29.8725 97.4374 31.829 96.8161 33.5191 95.8392C34.2322 95.4857 34.943 94.421 34.943 93.6219C35.031 89.7164 35.031 85.8131 34.7669 81.9976C34.6767 80.0437 35.2995 79.069 37.0777 78.4477C43.3058 76.0526 49.4437 73.3897 55.6696 70.8167C61.6292 68.3316 67.5887 65.8465 73.5505 63.4514C75.7733 62.5645 77.7319 63.4514 78.5308 65.493C79.2417 67.4447 78.5308 69.2185 76.3961 70.2833C75.8493 70.5578 75.2846 70.7954 74.7059 70.9946C64.5637 75.0891 54.4525 79.2596 44.3732 83.5058C43.5721 83.8614 42.5025 84.6583 42.4145 85.3696C42.2385 87.4113 42.4145 89.5408 42.4145 92.2015ZM27.6476 50.4967C29.6942 49.6976 31.3844 48.8985 33.1648 48.2794C34.4985 47.8338 34.855 47.0347 34.855 45.7043C34.7669 41.711 34.943 37.8055 34.7669 33.8143C34.6767 32.2161 35.1191 31.3292 36.8114 30.7079C42.0602 28.6663 47.1307 26.449 52.3772 24.3195C55.1348 23.1647 57.1815 23.786 58.1608 25.9155C59.1379 28.1328 58.0728 29.9988 55.313 31.1514C51.5784 32.7474 47.8415 34.2578 44.1047 35.8538C43.4819 36.1216 42.5928 36.7407 42.5047 37.2742C42.3265 39.5793 42.4167 41.8888 42.4167 44.2839C43.0373 44.1083 43.3938 44.0183 43.6601 43.9304C48.8209 41.801 54.0696 39.7593 59.1379 37.452C64.653 35.0547 67.1442 28.7563 64.9215 23.2548C62.6987 17.6632 56.3826 14.9125 50.7773 17.1298C43.5135 20.0483 36.2778 23.0363 29.0714 26.0933C28.4486 26.359 27.7378 27.2459 27.7378 27.8672C27.6498 35.3225 27.6498 42.6857 27.6498 50.4967H27.6476Z" fill="white"/>
</svg>
